<svg version="1.1" id="Layer_1" xmlns:x="ns_extend;" xmlns:i="ns_ai;" xmlns:graph="ns_graphs;" xmlns="http://www.w3.org/2000/svg" xmlns:xlink="http://www.w3.org/1999/xlink" x="0px" y="0px" viewBox="0 0 41.8 41.8" style="enable-background:new 0 0 41.8 41.8;" xml:space="preserve">
 <style type="text/css">
  .st0{fill:currentColor;}
 </style>
 <metadata>
  <sfw xmlns="ns_sfw;">
   <slices>
   </slices>
   <sliceSourceBounds bottomLeftOrigin="true" height="41.8" width="41.8" x="155.6" y="-8.2">
   </sliceSourceBounds>
  </sfw>
 </metadata>
 <path class="st0" d="M41.8,21.3c0,3.4-0.8,6.7-2.4,9.6c0,0.2-0.2,0.2-0.2,0.3l-1.5-0.8c0-0.2,0.2-0.2,0.2-0.3c1.3-2.7,2-5.6,2-8.8
	c0-4.6-1.5-8.8-4.2-12.1l-2.5,2c0-0.2-0.2-0.2-0.2-0.3c-2.7-3.2-6.6-5.4-11.1-5.6l-0.3,4h-0.8c-6.6,0-11.8,5.4-11.8,11.8
	c0,6.6,5.4,11.8,11.8,11.8c3.9,0,7.4-1.9,9.6-4.9c0-0.2,0.2-0.2,0.2-0.3l3.4,2.4l2.7,1.9l1.3,1c0,0.2-0.2,0.2-0.2,0.3
	c-3.9,5.2-10,8.6-16.9,8.6C9.4,41.8,0,32.4,0,20.9S9.4,0,20.9,0h1.5c5.9,0.3,11,3.2,14.5,7.4c0,0.2,0.2,0.2,0.2,0.3
	C40.1,11.6,41.8,16.2,41.8,21.3L41.8,21.3z">
 </path>
</svg>